<svg id="visual" viewBox="0 0 960 300" width="960" height="300" xmlns="http://www.w3.org/2000/svg" xmlns:xlink="http://www.w3.org/1999/xlink" version="1.1"><path d="M0 207L22.8 205C45.7 203 91.3 199 137 198.7C182.7 198.3 228.3 201.7 274 201.2C319.7 200.7 365.3 196.3 411.2 194C457 191.7 503 191.3 548.8 193.7C594.7 196 640.3 201 686 203.3C731.7 205.7 777.3 205.3 823 203.3C868.7 201.3 914.3 197.7 937.2 195.8L960 194L960 301L937.2 301C914.3 301 868.7 301 823 301C777.3 301 731.7 301 686 301C640.3 301 594.7 301 548.8 301C503 301 457 301 411.2 301C365.3 301 319.7 301 274 301C228.3 301 182.7 301 137 301C91.3 301 45.7 301 22.8 301L0 301Z" fill="#fa7268"></path><path d="M0 229L22.8 229.5C45.7 230 91.3 231 137 229.3C182.7 227.7 228.3 223.3 274 223.2C319.7 223 365.3 227 411.2 226.7C457 226.3 503 221.7 548.8 220.7C594.7 219.7 640.3 222.3 686 221.7C731.7 221 777.3 217 823 217.3C868.7 217.7 914.3 222.3 937.2 224.7L960 227L960 301L937.2 301C914.3 301 868.7 301 823 301C777.3 301 731.7 301 686 301C640.3 301 594.7 301 548.8 301C503 301 457 301 411.2 301C365.3 301 319.7 301 274 301C228.3 301 182.7 301 137 301C91.3 301 45.7 301 22.8 301L0 301Z" fill="#e6506c"></path><path d="M0 239L22.8 239.7C45.7 240.3 91.3 241.7 137 243.8C182.7 246 228.3 249 274 247.3C319.7 245.7 365.3 239.3 411.2 238C457 236.7 503 240.3 548.8 243.3C594.7 246.3 640.3 248.7 686 247.5C731.7 246.3 777.3 241.7 823 239.2C868.7 236.7 914.3 236.3 937.2 236.2L960 236L960 301L937.2 301C914.3 301 868.7 301 823 301C777.3 301 731.7 301 686 301C640.3 301 594.7 301 548.8 301C503 301 457 301 411.2 301C365.3 301 319.7 301 274 301C228.3 301 182.7 301 137 301C91.3 301 45.7 301 22.8 301L0 301Z" fill="#cc2f73"></path><path d="M0 253L22.8 252.8C45.7 252.7 91.3 252.3 137 252.3C182.7 252.3 228.3 252.7 274 255.2C319.7 257.7 365.3 262.3 411.2 262.8C457 263.3 503 259.7 548.8 259.3C594.7 259 640.3 262 686 262C731.7 262 777.3 259 823 258.7C868.7 258.3 914.3 260.7 937.2 261.8L960 263L960 301L937.2 301C914.3 301 868.7 301 823 301C777.3 301 731.7 301 686 301C640.3 301 594.7 301 548.8 301C503 301 457 301 411.2 301C365.3 301 319.7 301 274 301C228.3 301 182.7 301 137 301C91.3 301 45.7 301 22.8 301L0 301Z" fill="#aa107a"></path><path d="M0 279L22.8 279.2C45.7 279.3 91.3 279.7 137 279.5C182.7 279.3 228.3 278.7 274 280C319.7 281.3 365.3 284.7 411.2 285C457 285.3 503 282.7 548.8 279.7C594.7 276.7 640.3 273.3 686 273.5C731.7 273.7 777.3 277.3 823 278.8C868.7 280.3 914.3 279.7 937.2 279.3L960 279L960 301L937.2 301C914.3 301 868.7 301 823 301C777.3 301 731.7 301 686 301C640.3 301 594.7 301 548.8 301C503 301 457 301 411.2 301C365.3 301 319.7 301 274 301C228.3 301 182.7 301 137 301C91.3 301 45.7 301 22.8 301L0 301Z" fill="#800080"></path></svg>