<svg id="visual" viewBox="0 0 960 300" width="960" height="300" xmlns="http://www.w3.org/2000/svg" xmlns:xlink="http://www.w3.org/1999/xlink" version="1.1"><path d="M0 91L22.8 88.3C45.7 85.7 91.3 80.3 137 78.5C182.7 76.7 228.3 78.3 274 78.2C319.7 78 365.3 76 411.2 79.8C457 83.7 503 93.3 548.8 94.7C594.7 96 640.3 89 686 90.2C731.7 91.3 777.3 100.7 823 100.5C868.7 100.3 914.3 90.7 937.2 85.8L960 81L960 0L937.2 0C914.3 0 868.7 0 823 0C777.3 0 731.7 0 686 0C640.3 0 594.7 0 548.8 0C503 0 457 0 411.2 0C365.3 0 319.7 0 274 0C228.3 0 182.7 0 137 0C91.3 0 45.7 0 22.8 0L0 0Z" fill="#fa7268"></path><path d="M0 69L22.8 74.3C45.7 79.7 91.3 90.3 137 95.2C182.7 100 228.3 99 274 95.3C319.7 91.7 365.3 85.3 411.2 84.5C457 83.7 503 88.3 548.8 87.5C594.7 86.7 640.3 80.3 686 81.3C731.7 82.3 777.3 90.7 823 90C868.7 89.3 914.3 79.7 937.2 74.8L960 70L960 0L937.2 0C914.3 0 868.7 0 823 0C777.3 0 731.7 0 686 0C640.3 0 594.7 0 548.8 0C503 0 457 0 411.2 0C365.3 0 319.7 0 274 0C228.3 0 182.7 0 137 0C91.3 0 45.7 0 22.8 0L0 0Z" fill="#e6506c"></path><path d="M0 75L22.8 70C45.7 65 91.3 55 137 51.7C182.7 48.3 228.3 51.7 274 56.5C319.7 61.3 365.3 67.7 411.2 71.5C457 75.3 503 76.7 548.8 76C594.7 75.3 640.3 72.7 686 70.2C731.7 67.7 777.3 65.3 823 64.8C868.7 64.3 914.3 65.7 937.2 66.3L960 67L960 0L937.2 0C914.3 0 868.7 0 823 0C777.3 0 731.7 0 686 0C640.3 0 594.7 0 548.8 0C503 0 457 0 411.2 0C365.3 0 319.7 0 274 0C228.3 0 182.7 0 137 0C91.3 0 45.7 0 22.8 0L0 0Z" fill="#cc2f73"></path><path d="M0 47L22.8 45.3C45.7 43.7 91.3 40.3 137 39.5C182.7 38.7 228.3 40.3 274 39.5C319.7 38.7 365.3 35.3 411.2 36.8C457 38.3 503 44.7 548.8 48.5C594.7 52.3 640.3 53.7 686 54.8C731.7 56 777.3 57 823 52.5C868.7 48 914.3 38 937.2 33L960 28L960 0L937.2 0C914.3 0 868.7 0 823 0C777.3 0 731.7 0 686 0C640.3 0 594.7 0 548.8 0C503 0 457 0 411.2 0C365.3 0 319.7 0 274 0C228.3 0 182.7 0 137 0C91.3 0 45.7 0 22.8 0L0 0Z" fill="#aa107a"></path><path d="M0 30L22.8 27.7C45.7 25.3 91.3 20.7 137 18.2C182.7 15.7 228.3 15.3 274 18.7C319.7 22 365.3 29 411.2 31.3C457 33.7 503 31.3 548.8 30.3C594.7 29.3 640.3 29.7 686 27C731.7 24.3 777.3 18.7 823 16.7C868.7 14.7 914.3 16.3 937.2 17.2L960 18L960 0L937.2 0C914.3 0 868.7 0 823 0C777.3 0 731.7 0 686 0C640.3 0 594.7 0 548.8 0C503 0 457 0 411.2 0C365.3 0 319.7 0 274 0C228.3 0 182.7 0 137 0C91.3 0 45.7 0 22.8 0L0 0Z" fill="#800080"></path></svg>